# xmcd
#
# Track frame offsets:
#	225
#	14647
#	26477
#	38860
#	51534
#	62333
#	73270
#	82607
#	96757
#	106825
#	116934
#	126697
#	141945
#	153256
#	162865
#	177194
#
# Disc length: 2525 seconds
#
# Revision: 3
# Processed by: cddbd v1.5.2PL0 Copyright (c) Steve Scherf et al.
# Submitted via: audiograbber 1.83.01
#
DISCID=dd09da10,e209da10
DTITLE=Various Artist - Country Highlights CD 2
DYEAR=1900
DGENRE=Country
TTITLE0=George Jones - A Good Year For The Roses
TTITLE1=Waylon Jennings - Crying
TTITLE2=Johnny Cash - I Walk The Line
TTITLE3=Willie Nelson - Any Ol' Arms Won't Do
TTITLE4=Roger Miller - King Of The Road
TTITLE5=Dolly Parton - It Wasn't God Who Made Honky Tonk Angels
TTITLE6=The Bellamy Brothers - Let Your Love Flow
TTITLE7=Sammy's Saloon - Country Guitar No. 1
TTITLE8=Jim Reeves - We'll Have To Go
TTITLE9=Carl Perkins - Daddy Sang Bass
TTITLE10=Eddie Jones - Deep In The Heart Of Texas
TTITLE11=Andy Forstman - My Tennessee Home
TTITLE12=George Jones - I Can't Change Over Night
TTITLE13=Jerry Lee Lewis - Walk Right In
TTITLE14=Billy Joe Spears - I'll Never Be Free
TTITLE15=Oak Ridge Boys - You'll Never Walk Alone
EXTD=
EXTT0=
EXTT1=
EXTT2=
EXTT3=
EXTT4=
EXTT5=
EXTT6=
EXTT7=
EXTT8=
EXTT9=
EXTT10=
EXTT11=
EXTT12=
EXTT13=
EXTT14=
EXTT15=
PLAYORDER=
